<svg xmlns="http://www.w3.org/2000/svg" xmlns:xlink="http://www.w3.org/1999/xlink" width="500" zoomAndPan="magnify" viewBox="0 0 375 374.999991" height="500" preserveAspectRatio="xMidYMid meet" version="1.2"><defs><clipPath id="e32f3279a3"><path d="M 283.671875 163 L 351 163 L 351 212 L 283.671875 212 Z M 283.671875 163 "/></clipPath><clipPath id="78e28297be"><path d="M 24 163 L 91.328125 163 L 91.328125 212 L 24 212 Z M 24 163 "/></clipPath></defs><g id="9bc3dbd25e"><rect x="0" width="375" y="0" height="374.999991" style="fill:#ffffff;fill-opacity:1;stroke:none;"/><rect x="0" width="375" y="0" height="374.999991" style="fill:#ffffff;fill-opacity:1;stroke:none;"/><path style=" stroke:none;fill-rule:nonzero;fill:#000000;fill-opacity:1;" d="M 118.398438 95.777344 L 256.121094 95.777344 C 268.132812 95.777344 279.652344 100.546875 288.144531 109.039062 C 296.636719 117.535156 301.410156 129.054688 301.410156 141.0625 L 301.410156 231.640625 C 301.410156 243.652344 296.636719 255.171875 288.144531 263.664062 C 279.652344 272.15625 268.132812 276.929688 256.121094 276.929688 L 118.398438 276.929688 C 93.382812 276.929688 73.109375 256.652344 73.109375 231.640625 L 73.109375 141.0625 C 73.109375 116.050781 93.382812 95.777344 118.398438 95.777344 Z M 118.398438 95.777344 "/><g style="fill:#efb85b;fill-opacity:1;"><g transform="translate(114.07589, 226.025434)"><path style="stroke:none" d="M 69.328125 0 L 53.828125 0 L 53.828125 -31.65625 L 24.78125 -31.65625 L 24.78125 0 L 9.234375 0 L 9.234375 -73.34375 L 24.78125 -73.34375 L 24.78125 -44.59375 L 53.828125 -44.59375 L 53.828125 -73.34375 L 69.328125 -73.34375 Z M 69.328125 0 "/></g></g><g style="fill:#efb85b;fill-opacity:1;"><g transform="translate(192.674196, 226.025434)"><path style="stroke:none" d="M 68.21875 0 L 50.5625 0 L 31.359375 -30.90625 L 24.78125 -26.1875 L 24.78125 0 L 9.234375 0 L 9.234375 -73.34375 L 24.78125 -73.34375 L 24.78125 -39.78125 L 30.90625 -48.40625 L 50.765625 -73.34375 L 68.015625 -73.34375 L 42.4375 -40.890625 Z M 68.21875 0 "/></g></g><g clip-rule="nonzero" clip-path="url(#e32f3279a3)"><path style=" stroke:none;fill-rule:evenodd;fill:#efb85b;fill-opacity:1;" d="M 339.566406 193.25 C 335.417969 192.195312 330.925781 190.480469 326.433594 188.464844 C 326.347656 188.179688 326.214844 187.890625 326.050781 187.589844 C 326.214844 187.289062 326.347656 186.996094 326.433594 186.714844 C 330.925781 184.703125 335.417969 182.984375 339.566406 181.929688 C 342.621094 181.160156 349.097656 176.109375 349.929688 172.996094 C 351.175781 168.355469 349.050781 164.675781 344.410156 163.433594 C 339.765625 162.191406 330.90625 167.695312 329.660156 172.339844 C 328.8125 175.515625 329.179688 177.777344 331.601562 179.957031 L 323.515625 184.625 C 314.335938 176.332031 287.390625 165.207031 283.671875 167.554688 L 318.378906 187.589844 L 283.671875 207.628906 C 287.390625 209.976562 314.335938 198.847656 323.515625 190.554688 L 331.601562 195.222656 C 329.179688 197.402344 328.8125 199.667969 329.660156 202.84375 C 330.90625 207.488281 339.765625 212.988281 344.410156 211.75 C 349.050781 210.503906 351.175781 206.828125 349.933594 202.1875 C 349.097656 199.070312 342.621094 194.023438 339.566406 193.25 Z M 322.027344 189.273438 C 321.097656 189.273438 320.34375 188.519531 320.34375 187.589844 C 320.34375 186.660156 321.097656 185.90625 322.027344 185.90625 C 322.957031 185.90625 323.710938 186.660156 323.710938 187.589844 C 323.710938 188.519531 322.957031 189.273438 322.027344 189.273438 Z M 335.929688 179.105469 C 332.804688 178.273438 331.621094 176.203125 332.453125 173.082031 C 333.285156 169.964844 340.546875 165.390625 343.664062 166.226562 C 346.785156 167.0625 347.972656 169.125 347.140625 172.25 C 346.304688 175.371094 339.046875 179.9375 335.929688 179.105469 Z M 335.929688 196.074219 C 339.046875 195.246094 346.304688 199.808594 347.140625 202.929688 C 347.972656 206.054688 346.785156 208.117188 343.664062 208.957031 C 340.546875 209.789062 333.289062 205.214844 332.453125 202.097656 C 331.621094 198.976562 332.804688 196.910156 335.929688 196.074219 Z M 335.929688 196.074219 "/></g><g clip-rule="nonzero" clip-path="url(#78e28297be)"><path style=" stroke:none;fill-rule:evenodd;fill:#efb85b;fill-opacity:1;" d="M 35.429688 181.742188 C 39.578125 182.796875 44.070312 184.515625 48.5625 186.53125 C 48.648438 186.8125 48.78125 187.105469 48.945312 187.40625 C 48.78125 187.703125 48.648438 187.996094 48.5625 188.277344 C 44.070312 190.292969 39.582031 192.007812 35.429688 193.066406 C 32.375 193.835938 25.898438 198.886719 25.066406 202 C 23.824219 206.640625 25.949219 210.316406 30.589844 211.5625 C 35.230469 212.800781 44.09375 207.300781 45.335938 202.65625 C 46.1875 199.480469 45.816406 197.214844 43.398438 195.035156 L 51.484375 190.367188 C 60.660156 198.660156 87.609375 209.789062 91.328125 207.441406 L 56.621094 187.402344 L 91.328125 167.367188 C 87.609375 165.019531 60.660156 176.148438 51.484375 184.4375 L 43.398438 179.769531 C 45.816406 177.59375 46.1875 175.328125 45.335938 172.152344 C 44.089844 167.507812 35.230469 162.003906 30.589844 163.246094 C 25.949219 164.488281 23.824219 168.164062 25.066406 172.808594 C 25.898438 175.921875 32.375 180.972656 35.429688 181.742188 Z M 52.96875 185.722656 C 53.898438 185.722656 54.652344 186.472656 54.652344 187.40625 C 54.652344 188.335938 53.898438 189.089844 52.96875 189.089844 C 52.039062 189.089844 51.285156 188.335938 51.285156 187.40625 C 51.285156 186.472656 52.039062 185.722656 52.96875 185.722656 Z M 39.070312 195.890625 C 42.191406 196.722656 43.378906 198.789062 42.542969 201.910156 C 41.710938 205.027344 34.449219 209.605469 31.335938 208.769531 C 28.214844 207.933594 27.023438 205.867188 27.859375 202.746094 C 28.691406 199.621094 35.953125 195.058594 39.070312 195.890625 Z M 39.070312 178.917969 C 35.953125 179.75 28.691406 175.183594 27.859375 172.0625 C 27.023438 168.941406 28.214844 166.875 31.332031 166.039062 C 34.449219 165.203125 41.710938 169.78125 42.542969 172.898438 C 43.378906 176.015625 42.191406 178.085938 39.070312 178.917969 Z M 39.070312 178.917969 "/></g></g></svg>