<svg xmlns="http://www.w3.org/2000/svg" xmlns:xlink="http://www.w3.org/1999/xlink" width="500" zoomAndPan="magnify" viewBox="0 0 375 374.999991" height="500" preserveAspectRatio="xMidYMid meet" version="1.2"><defs><clipPath id="834e56d2d4"><path d="M 24 121 L 91.328125 121 L 91.328125 171 L 24 171 Z M 24 121 "/></clipPath><clipPath id="195cfe040f"><path d="M 283.671875 121 L 351 121 L 351 171 L 283.671875 171 Z M 283.671875 121 "/></clipPath></defs><g id="1a489f27c0"><g clip-rule="nonzero" clip-path="url(#834e56d2d4)"><path style=" stroke:none;fill-rule:evenodd;fill:#efb85b;fill-opacity:1;" d="M 35.429688 140.289062 C 39.578125 141.34375 44.070312 143.0625 48.5625 145.078125 C 48.648438 145.359375 48.78125 145.652344 48.945312 145.953125 C 48.78125 146.25 48.648438 146.542969 48.5625 146.824219 C 44.070312 148.839844 39.582031 150.558594 35.429688 151.613281 C 32.375 152.382812 25.898438 157.433594 25.066406 160.546875 C 23.824219 165.1875 25.949219 168.863281 30.589844 170.109375 C 35.230469 171.347656 44.09375 165.847656 45.335938 161.203125 C 46.1875 158.027344 45.816406 155.761719 43.398438 153.582031 L 51.484375 148.914062 C 60.660156 157.207031 87.609375 168.335938 91.328125 165.988281 L 56.621094 145.949219 L 91.328125 125.914062 C 87.609375 123.566406 60.660156 134.695312 51.484375 142.984375 L 43.398438 138.316406 C 45.816406 136.140625 46.1875 133.875 45.335938 130.699219 C 44.089844 126.054688 35.230469 120.550781 30.589844 121.792969 C 25.949219 123.035156 23.824219 126.710938 25.066406 131.355469 C 25.898438 134.46875 32.375 139.519531 35.429688 140.289062 Z M 52.96875 144.269531 C 53.898438 144.269531 54.652344 145.019531 54.652344 145.953125 C 54.652344 146.882812 53.898438 147.636719 52.96875 147.636719 C 52.039062 147.636719 51.285156 146.882812 51.285156 145.953125 C 51.285156 145.019531 52.039062 144.269531 52.96875 144.269531 Z M 39.070312 154.4375 C 42.191406 155.269531 43.378906 157.335938 42.542969 160.457031 C 41.710938 163.574219 34.449219 168.152344 31.335938 167.316406 C 28.214844 166.480469 27.023438 164.414062 27.859375 161.292969 C 28.691406 158.167969 35.953125 153.605469 39.070312 154.4375 Z M 39.070312 137.464844 C 35.953125 138.296875 28.691406 133.730469 27.859375 130.609375 C 27.023438 127.488281 28.214844 125.421875 31.332031 124.585938 C 34.449219 123.75 41.710938 128.328125 42.542969 131.445312 C 43.378906 134.5625 42.191406 136.632812 39.070312 137.464844 Z M 39.070312 137.464844 "/></g><g style="fill:#efb85b;fill-opacity:1;"><g transform="translate(114.07589, 184.572483)"><path style="stroke:none" d="M 69.328125 0 L 53.828125 0 L 53.828125 -31.65625 L 24.78125 -31.65625 L 24.78125 0 L 9.234375 0 L 9.234375 -73.34375 L 24.78125 -73.34375 L 24.78125 -44.59375 L 53.828125 -44.59375 L 53.828125 -73.34375 L 69.328125 -73.34375 Z M 69.328125 0 "/></g></g><g style="fill:#efb85b;fill-opacity:1;"><g transform="translate(192.674196, 184.572483)"><path style="stroke:none" d="M 68.21875 0 L 50.5625 0 L 31.359375 -30.90625 L 24.78125 -26.1875 L 24.78125 0 L 9.234375 0 L 9.234375 -73.34375 L 24.78125 -73.34375 L 24.78125 -39.78125 L 30.90625 -48.40625 L 50.765625 -73.34375 L 68.015625 -73.34375 L 42.4375 -40.890625 Z M 68.21875 0 "/></g></g><g style="fill:#efb85b;fill-opacity:1;"><g transform="translate(76.205625, 272.250327)"><path style="stroke:none" d="M 39.53125 -15.328125 C 39.53125 -10.347656 37.734375 -6.421875 34.140625 -3.546875 C 30.554688 -0.679688 25.566406 0.75 19.171875 0.75 C 13.285156 0.75 8.078125 -0.351562 3.546875 -2.5625 L 3.546875 -13.4375 C 7.273438 -11.78125 10.425781 -10.609375 13 -9.921875 C 15.582031 -9.242188 17.941406 -8.90625 20.078125 -8.90625 C 22.648438 -8.90625 24.617188 -9.394531 25.984375 -10.375 C 27.359375 -11.363281 28.046875 -12.828125 28.046875 -14.765625 C 28.046875 -15.847656 27.742188 -16.804688 27.140625 -17.640625 C 26.535156 -18.484375 25.644531 -19.296875 24.46875 -20.078125 C 23.300781 -20.859375 20.921875 -22.109375 17.328125 -23.828125 C 13.953125 -25.410156 11.421875 -26.929688 9.734375 -28.390625 C 8.046875 -29.847656 6.695312 -31.546875 5.6875 -33.484375 C 4.6875 -35.421875 4.1875 -37.6875 4.1875 -40.28125 C 4.1875 -45.164062 5.84375 -49.003906 9.15625 -51.796875 C 12.46875 -54.585938 17.039062 -55.984375 22.875 -55.984375 C 25.75 -55.984375 28.488281 -55.640625 31.09375 -54.953125 C 33.695312 -54.273438 36.421875 -53.320312 39.265625 -52.09375 L 35.484375 -43 C 32.535156 -44.207031 30.097656 -45.050781 28.171875 -45.53125 C 26.253906 -46.007812 24.363281 -46.25 22.5 -46.25 C 20.28125 -46.25 18.578125 -45.734375 17.390625 -44.703125 C 16.210938 -43.671875 15.625 -42.320312 15.625 -40.65625 C 15.625 -39.625 15.863281 -38.722656 16.34375 -37.953125 C 16.820312 -37.191406 17.582031 -36.453125 18.625 -35.734375 C 19.675781 -35.015625 22.148438 -33.722656 26.046875 -31.859375 C 31.203125 -29.390625 34.738281 -26.914062 36.65625 -24.4375 C 38.570312 -21.957031 39.53125 -18.921875 39.53125 -15.328125 Z M 39.53125 -15.328125 "/></g><g transform="translate(118.790444, 272.250327)"><path style="stroke:none" d="M 28.234375 0 L 16.53125 0 L 16.53125 -45.453125 L 1.546875 -45.453125 L 1.546875 -55.1875 L 43.21875 -55.1875 L 43.21875 -45.453125 L 28.234375 -45.453125 Z M 28.234375 0 "/></g><g transform="translate(163.564907, 272.250327)"><path style="stroke:none" d="M 24.125 -32.46875 L 35.640625 -55.1875 L 48.25 -55.1875 L 29.9375 -21.484375 L 29.9375 0 L 18.3125 0 L 18.3125 -21.109375 L 0 -55.1875 L 12.6875 -55.1875 Z M 24.125 -32.46875 "/></g><g transform="translate(211.8126, 272.250327)"><path style="stroke:none" d="M 6.953125 0 L 6.953125 -55.1875 L 18.65625 -55.1875 L 18.65625 -9.671875 L 41.03125 -9.671875 L 41.03125 0 Z M 6.953125 0 "/></g><g transform="translate(255.492241, 272.250327)"><path style="stroke:none" d="M 38.734375 0 L 6.953125 0 L 6.953125 -55.1875 L 38.734375 -55.1875 L 38.734375 -45.609375 L 18.65625 -45.609375 L 18.65625 -33.484375 L 37.328125 -33.484375 L 37.328125 -23.890625 L 18.65625 -23.890625 L 18.65625 -9.671875 L 38.734375 -9.671875 Z M 38.734375 0 "/></g></g><g clip-rule="nonzero" clip-path="url(#195cfe040f)"><path style=" stroke:none;fill-rule:evenodd;fill:#efb85b;fill-opacity:1;" d="M 339.566406 151.796875 C 335.417969 150.742188 330.925781 149.027344 326.433594 147.011719 C 326.347656 146.726562 326.214844 146.4375 326.050781 146.136719 C 326.214844 145.835938 326.347656 145.542969 326.433594 145.261719 C 330.925781 143.25 335.417969 141.53125 339.566406 140.476562 C 342.621094 139.707031 349.097656 134.65625 349.929688 131.542969 C 351.175781 126.902344 349.050781 123.222656 344.410156 121.980469 C 339.765625 120.738281 330.90625 126.242188 329.660156 130.886719 C 328.8125 134.0625 329.179688 136.324219 331.601562 138.503906 L 323.515625 143.171875 C 314.335938 134.882812 287.390625 123.753906 283.671875 126.101562 L 318.378906 146.136719 L 283.671875 166.175781 C 287.390625 168.523438 314.335938 157.394531 323.515625 149.101562 L 331.601562 153.769531 C 329.179688 155.949219 328.8125 158.214844 329.660156 161.390625 C 330.90625 166.035156 339.765625 171.535156 344.410156 170.296875 C 349.050781 169.054688 351.175781 165.375 349.933594 160.734375 C 349.097656 157.621094 342.621094 152.570312 339.566406 151.796875 Z M 322.027344 147.820312 C 321.097656 147.820312 320.34375 147.066406 320.34375 146.136719 C 320.34375 145.207031 321.097656 144.453125 322.027344 144.453125 C 322.957031 144.453125 323.710938 145.207031 323.710938 146.136719 C 323.710938 147.066406 322.957031 147.820312 322.027344 147.820312 Z M 335.929688 137.652344 C 332.804688 136.820312 331.621094 134.75 332.453125 131.628906 C 333.285156 128.511719 340.546875 123.9375 343.664062 124.773438 C 346.785156 125.609375 347.972656 127.671875 347.140625 130.796875 C 346.304688 133.917969 339.046875 138.484375 335.929688 137.652344 Z M 335.929688 154.621094 C 339.046875 153.792969 346.304688 158.355469 347.140625 161.476562 C 347.972656 164.601562 346.785156 166.664062 343.664062 167.503906 C 340.546875 168.335938 333.289062 163.761719 332.453125 160.644531 C 331.621094 157.523438 332.804688 155.457031 335.929688 154.621094 Z M 335.929688 154.621094 "/></g></g></svg>